# This file uses centimeters as units for non-parametric coordinates.

mtllib na_srubki.mtl
g default
v 55.079144 -170.065511 103.550836
v 137.121850 -165.876264 100.569833
v 137.121850 -165.876264 -100.569833
v 55.079144 -170.065511 -103.550836
v 58.147691 -173.221386 -105.470908
v 144.595561 -173.221386 -105.470908
v 144.595561 -173.221386 105.470908
v 58.147691 -173.221386 105.470908
v 137.121850 166.142794 -100.569833
v -2.313304 171.198662 -103.550836
v -2.313304 -111.039770 -103.550836
v -2.313304 -111.039770 -105.470908
v -2.313304 173.487884 -105.470908
v 144.595561 173.487884 -105.470908
v 137.121850 166.142794 100.569833
v -2.313304 -111.039770 105.470908
v -2.313304 -111.039770 103.550836
v -2.313304 173.487884 105.470908
v -2.313304 171.198662 103.550836
v 144.595561 173.487884 105.470908
vt 0.643207 0.441771
vt 0.643207 0.859168
vt 0.396152 0.441771
vt 0.396152 0.859168
vt 0.448382 0.437780
vt 0.446023 0.434902
vt 0.448382 0.080086
vt 0.189286 0.437780
vt 0.446023 0.080086
vt 0.191645 0.434902
vt 0.448382 0.001915
vt 0.189286 0.080086
vt 0.446023 0.005882
vt 0.191645 0.080086
vt 0.189286 0.001915
vt 0.191645 0.005882
vt 0.456293 0.001915
vt 0.715388 0.001915
vt 0.456293 0.437780
vt 0.715388 0.437780
vt 0.001992 0.704858
vt 0.102763 0.708519
vt 0.001992 0.959236
vt 0.102763 0.955575
vt 0.283834 0.441771
vt 0.390016 0.441771
vt 0.283834 0.700866
vt 0.390016 0.700866
vt 0.109379 0.959236
vt 0.109379 0.704858
vt 0.280645 0.955575
vt 0.280645 0.708519
vt 0.097254 0.441771
vt 0.277699 0.441771
vt 0.097254 0.700866
vt 0.277699 0.700866
vt 0.826743 0.870791
vt 0.826743 0.515975
vt 0.998008 0.864435
vt 0.897237 0.441771
vt 0.998008 0.447038
vt 0.001992 0.001915
vt 0.182437 0.001915
vt 0.001992 0.359608
vt 0.076255 0.437779
vt 0.182437 0.437779
vt 0.649342 0.441771
vt 0.820607 0.448127
vt 0.649342 0.796586
vt 0.719836 0.870790
vt 0.820607 0.865524
vt 0.903744 0.001915
vt 0.903744 0.437780
vt 0.797562 0.001915
vt 0.723299 0.080086
vt 0.723299 0.437780
vn -0.050995 0.998699 0.000000
vn -0.050995 0.998699 0.000000
vn -0.050995 0.998699 0.000000
vn -0.050995 0.998699 0.000000
vn 0.000000 -1.000000 0.000000
vn 0.000000 -1.000000 0.000000
vn 0.000000 -1.000000 0.000000
vn 0.000000 -1.000000 0.000000
vn -0.021374 0.000000 0.999772
vn -0.011220 -0.005110 0.999924
vn -0.021718 -0.000668 0.999764
vn -0.036311 0.000000 0.999341
vn -0.024513 -0.002882 0.999695
vn 0.000000 0.000000 -1.000000
vn 0.000000 0.000000 -1.000000
vn 0.000000 0.000000 -1.000000
vn 0.000000 0.000000 -1.000000
vn 0.000000 0.000000 -1.000000
vn -1.000000 0.000000 0.000000
vn -1.000000 0.000000 0.000000
vn -1.000000 0.000000 0.000000
vn -1.000000 0.000000 0.000000
vn -0.716956 -0.697118 0.000000
vn -0.716956 -0.697118 0.000000
vn -0.716956 -0.697118 0.000000
vn -0.716957 -0.697118 0.000000
vn -0.716957 -0.697118 0.000000
vn -0.716957 -0.697118 0.000000
vn -0.716958 -0.697117 0.000000
vn -0.716958 -0.697117 0.000000
vn -1.000000 -0.000000 0.000000
vn -1.000000 -0.000000 0.000000
vn -1.000000 0.000000 0.000000
vn -1.000000 0.000000 0.000000
vn 1.000000 0.000000 0.000000
vn 1.000000 0.000000 0.000000
vn 1.000000 0.000000 0.000000
vn 1.000000 0.000000 0.000000
vn -0.036236 -0.999343 0.000000
vn -0.036236 -0.999343 0.000000
vn -0.036236 -0.999343 0.000000
vn -0.036236 -0.999343 0.000000
vn 0.000000 1.000000 0.000000
vn 0.000000 1.000000 0.000000
vn 0.000000 1.000000 0.000000
vn 0.000000 1.000000 0.000000
vn -0.021374 0.000000 -0.999772
vn -0.021718 -0.000668 -0.999764
vn -0.011220 -0.005110 -0.999924
vn -0.036311 0.000000 -0.999341
vn -0.024513 -0.002882 -0.999695
vn -1.000000 -0.000000 0.000000
vn -1.000000 0.000000 0.000000
vn -1.000000 0.000000 0.000000
vn -1.000000 0.000000 0.000000
vn 0.000000 0.000000 1.000000
vn 0.000000 0.000000 1.000000
vn 0.000000 0.000000 1.000000
vn 0.000000 0.000000 1.000000
vn 0.000000 0.000000 1.000000
s 1
g pCube5
usemtl initialShadingGroup
f 1/21/1 2/22/2 4/23/3
f 4/23/3 2/22/2 3/24/4
s 2
f 5/25/5 6/26/6 8/27/7
f 8/27/7 6/26/6 7/28/8
s 3
f 10/37/9 11/38/10 9/39/11
f 3/41/12 9/39/11 4/40/13
f 4/40/13 9/39/11 11/38/10
s 4
f 13/42/14 14/43/15 12/44/16
f 6/46/17 5/45/18 14/43/15
f 12/44/16 14/43/15 5/45/18
s 5
f 2/1/19 15/2/20 3/3/21
f 3/3/21 15/2/20 9/4/22
s 6
f 16/7/23 17/9/24 8/11/25
f 17/9/24 1/13/26 8/11/25
f 8/11/25 1/13/26 5/15/27
f 1/13/26 4/16/28 5/15/27
f 5/15/27 4/16/28 12/12/29
f 4/16/28 11/14/30 12/12/29
s 7
f 18/5/31 19/6/32 16/7/33
f 16/7/33 19/6/32 17/9/34
s 8
f 7/17/35 6/18/36 20/19/37
f 20/19/37 6/18/36 14/20/38
s 9
f 19/29/39 10/30/40 15/31/41
f 15/31/41 10/30/40 9/32/42
s 10
f 18/33/43 20/34/44 13/35/45
f 13/35/45 20/34/44 14/36/46
s 11
f 19/47/47 15/48/48 17/49/49
f 2/51/50 1/50/51 15/48/48
f 17/49/49 15/48/48 1/50/51
s 7
f 18/5/31 13/8/52 19/6/32
f 19/6/32 13/8/52 10/10/53
f 13/8/52 12/12/54 10/10/53
f 11/14/55 10/10/53 12/12/54
s 12
f 7/52/56 20/53/57 8/54/58
f 8/54/58 20/53/57 16/55/59
f 20/53/57 18/56/60 16/55/59
