# This file uses centimeters as units for non-parametric coordinates.

mtllib Mlotek.mtl
g default
v -422.047832 91.649451 12.101395
v -422.047832 90.130643 15.768146
v -22.434390 90.130643 15.768146
v -22.434390 91.649451 12.101395
v -422.047832 86.463894 17.286963
v -22.434390 86.463894 17.286963
v -21.119520 1.336512 -25.538799
v -19.880728 -1.217121 -22.985175
v -22.434390 1.336512 -24.223938
v -22.434390 1.336512 24.223938
v -19.880728 -1.217121 22.985175
v -21.119520 1.336512 25.538799
v 28.643270 1.336512 -24.223938
v 26.089646 -1.217121 -22.985175
v 27.328389 1.336512 -25.538799
v 27.328389 1.336512 25.538799
v 26.089646 -1.217121 22.985175
v 28.643270 1.336512 24.223938
v -22.434390 49.860476 -24.223938
v -21.119520 49.860476 -25.538799
v -22.434390 49.860476 24.223938
v 27.328389 49.860476 -25.538799
v -21.119520 49.860476 25.538799
v 28.643270 49.860476 -24.223938
v -22.434390 114.588575 -24.223938
v -21.119520 114.330407 -25.538799
v 27.328389 49.860476 25.538799
v 28.643270 49.860476 24.223938
v 27.328389 114.330407 -25.538799
v 28.643270 62.261099 -17.286963
v 29.462122 62.261099 -17.286963
v 29.462122 58.594345 -15.768146
v 28.643270 58.594345 -15.768146
v 29.462122 57.075532 -12.101395
v 28.643270 57.075532 -12.101395
v -21.119520 114.330407 25.538799
v -22.434390 114.588575 24.223938
v 28.643270 114.588575 -24.223938
v 29.462122 57.075532 12.101395
v 28.643270 57.075532 12.101395
v 28.643270 86.463894 -17.286963
v 29.462122 86.463894 -17.286963
v -4.535702 158.406709 -24.223938
v -2.578217 159.721599 -25.538799
v 29.462122 58.594345 15.768146
v 28.643270 58.594345 15.768146
v 28.643270 90.130643 -15.768146
v 29.462122 90.130643 -15.768146
v 28.643270 91.649451 -12.101395
v 29.462122 91.649451 -12.101395
v 29.462122 62.261099 17.286963
v 28.643270 62.261099 17.286963
v 27.328389 114.330407 25.538799
v 8.787116 159.721599 -25.538799
v 28.643270 91.649451 12.101395
v 29.462122 91.649451 12.101395
v 29.462122 86.463894 17.286963
v 28.643270 86.463894 17.286963
v -4.535702 158.406709 24.223938
v 10.744620 158.406709 -24.223938
v 28.643270 90.130643 15.768146
v 29.462122 90.130643 15.768146
v 28.643270 114.588575 24.223938
v -2.578217 159.721599 25.538799
v 10.744620 158.406709 24.223938
v 8.787116 159.721599 25.538799
v -22.434390 62.261099 17.286963
v -22.434390 58.594345 15.768146
v -22.434390 57.075532 12.101395
v -22.434390 57.075532 -12.101395
v -22.434390 58.594345 -15.768146
v -22.434390 62.261099 -17.286963
v -22.434390 86.463894 -17.286963
v -22.434390 90.130643 -15.768146
v -22.434390 91.649451 -12.101395
v -422.047832 62.261099 17.286963
v -422.047832 91.649451 -12.101395
v -422.047832 58.594345 15.768146
v -422.047832 90.130643 -15.768146
v -422.047832 86.463894 -17.286963
v -422.047832 57.075532 12.101395
v -422.047832 62.261099 -17.286963
v -422.047832 57.075532 -12.101395
v -422.047832 58.594345 -15.768146
vt 0.345660 0.129303
vt 0.345660 0.008363
vt 0.466412 0.129303
vt 0.342384 0.129303
vt 0.466412 0.008363
vt 0.436197 0.147286
vt 0.342384 0.289986
vt 0.342384 0.008363
vt 0.348747 0.001995
vt 0.469690 0.008363
vt 0.445337 0.151073
vt 0.375872 0.147286
vt 0.345660 0.290633
vt 0.463325 0.001995
vt 0.469690 0.129303
vt 0.449121 0.160210
vt 0.366735 0.151073
vt 0.362948 0.160210
vt 0.345660 0.399845
vt 0.469690 0.289986
vt 0.449121 0.220533
vt 0.362948 0.220533
vt 0.466412 0.290633
vt 0.342384 0.403121
vt 0.366735 0.229675
vt 0.375872 0.233457
vt 0.466412 0.399845
vt 0.469690 0.403121
vt 0.445337 0.229675
vt 0.436197 0.233457
vt 0.478824 0.129303
vt 0.478824 0.008363
vt 0.599587 0.129303
vt 0.475549 0.129303
vt 0.599587 0.008363
vt 0.569364 0.147286
vt 0.475549 0.289986
vt 0.475549 0.008363
vt 0.481917 0.001995
vt 0.602863 0.008363
vt 0.578512 0.151073
vt 0.509047 0.147286
vt 0.478824 0.290633
vt 0.596495 0.001995
vt 0.602863 0.129303
vt 0.582294 0.160210
vt 0.499900 0.151073
vt 0.496118 0.220533
vt 0.478824 0.399845
vt 0.602863 0.289986
vt 0.599587 0.290633
vt 0.496118 0.160210
vt 0.499900 0.229675
vt 0.475549 0.403121
vt 0.582294 0.220533
vt 0.509047 0.233457
vt 0.569364 0.233457
vt 0.599587 0.399845
vt 0.602863 0.403121
vt 0.578512 0.229675
vt 0.776012 0.404333
vt 0.779794 0.413480
vt 0.766875 0.400551
vt 0.706548 0.400551
vt 0.779794 0.473797
vt 0.776012 0.482945
vt 0.766875 0.486727
vt 0.706548 0.486727
vt 0.697411 0.482945
vt 0.693629 0.473797
vt 0.697411 0.404333
vt 0.693629 0.413480
vt 0.605416 0.410701
vt 0.614553 0.406913
vt 0.601629 0.419843
vt 0.601629 0.480165
vt 0.674875 0.406913
vt 0.605416 0.489302
vt 0.614553 0.493089
vt 0.674875 0.493089
vt 0.684018 0.410701
vt 0.687800 0.419843
vt 0.684018 0.489302
vt 0.687800 0.480165
vt 0.011038 0.998008
vt 0.001890 0.998008
vt 0.011038 0.001995
vt 0.001890 0.001995
vt 0.071355 0.998008
vt 0.071355 0.001995
vt 0.080503 0.001995
vt 0.080503 0.998008
vt 0.819771 0.524578
vt 0.826133 0.521491
vt 0.823046 0.527854
vt 0.826133 0.406913
vt 0.819771 0.403826
vt 0.940712 0.521491
vt 0.823046 0.400545
vt 0.940712 0.406913
vt 0.947079 0.403826
vt 0.947079 0.524578
vt 0.943798 0.400545
vt 0.943798 0.527854
vt 0.585890 0.406913
vt 0.587932 0.406913
vt 0.585890 0.416050
vt 0.587932 0.416050
vt 0.585890 0.476375
vt 0.587932 0.476375
vt 0.585890 0.485515
vt 0.587932 0.485515
vt 0.578022 0.476372
vt 0.580063 0.476372
vt 0.578022 0.485520
vt 0.580063 0.416056
vt 0.580063 0.485520
vt 0.578022 0.416056
vt 0.580063 0.406908
vt 0.578022 0.406908
vt 0.785615 0.527865
vt 0.785615 0.400551
vt 0.813942 0.527865
vt 0.813942 0.400551
vt 0.335909 0.997997
vt 0.326769 0.997997
vt 0.335909 0.001995
vt 0.326769 0.001995
vt 0.266444 0.001995
vt 0.266444 0.997997
vt 0.257307 0.997997
vt 0.257307 0.001995
vt 0.165755 0.997995
vt 0.156612 0.997995
vt 0.165755 0.001992
vt 0.156612 0.001992
vt 0.096290 0.001992
vt 0.096290 0.997995
vt 0.087153 0.997995
vt 0.087153 0.001992
vt 0.608713 0.275823
vt 0.729465 0.275823
vt 0.608713 0.396758
vt 0.729465 0.115129
vt 0.729465 0.396758
vt 0.608713 0.115129
vt 0.683253 0.001995
vt 0.654926 0.001995
vt 0.736329 0.122935
vt 0.736329 0.001995
vt 0.857081 0.122935
vt 0.857081 0.001995
vt 0.736329 0.283618
vt 0.857081 0.283618
vt 0.782542 0.396753
vt 0.810868 0.396753
vt 0.593758 0.476383
vt 0.595800 0.476383
vt 0.593758 0.485520
vt 0.595800 0.416045
vt 0.595800 0.485520
vt 0.593758 0.416045
vt 0.595800 0.406908
vt 0.593758 0.406908
vt 0.570153 0.406913
vt 0.572195 0.406913
vt 0.570153 0.416050
vt 0.572195 0.416050
vt 0.570153 0.476372
vt 0.572195 0.476372
vt 0.570153 0.485515
vt 0.572195 0.485515
vt 0.181367 0.998008
vt 0.172230 0.998008
vt 0.181367 0.001995
vt 0.172230 0.001995
vt 0.241706 0.998008
vt 0.241706 0.001995
vt 0.250843 0.001995
vt 0.250843 0.998008
vn 0.000000 0.998518 0.054416
vn 0.000000 0.923880 0.382681
vn 0.000000 0.998518 0.054416
vn 0.000000 0.923880 0.382681
vn 0.000000 0.382684 0.923879
vn 0.000000 0.054417 0.998518
vn 0.000000 0.382683 0.923880
vn 0.000000 0.054417 0.998518
vn -0.706401 -0.044585 -0.706406
vn -0.487626 -0.724182 -0.487629
vn -0.706401 -0.044584 -0.706407
vn -0.706401 -0.044584 0.706406
vn -0.487625 -0.724182 0.487629
vn -0.706401 -0.044585 0.706407
vn 0.706398 -0.044584 -0.706409
vn 0.487630 -0.724174 -0.487637
vn 0.706398 -0.044584 -0.706409
vn 0.706398 -0.044584 0.706409
vn 0.487630 -0.724174 0.487637
vn 0.706398 -0.044583 0.706409
vn -0.707102 -0.707111 0.000000
vn -0.707102 -0.707111 0.000000
vn -0.707103 -0.707111 0.000000
vn -0.707103 -0.707111 0.000000
vn 0.000000 -0.707106 -0.707108
vn 0.000000 -0.707106 -0.707108
vn 0.000000 -0.707106 -0.707108
vn 0.000000 -0.707106 -0.707108
vn -0.707104 0.000000 -0.707109
vn -0.707104 0.000000 -0.707109
vn 0.000000 -1.000000 0.000000
vn 0.000000 -1.000000 0.000000
vn 0.000000 -1.000000 0.000000
vn 0.000000 -1.000000 0.000000
vn -1.000000 0.000000 0.000000
vn -1.000000 0.000000 0.000000
vn -1.000000 0.000000 0.000000
vn -1.000000 0.000000 0.000000
vn 0.000000 0.000000 -1.000000
vn 0.000000 0.000000 -1.000000
vn 0.000000 0.000000 -1.000000
vn 0.000000 0.000000 -1.000000
vn 0.000000 -0.707105 0.707108
vn 0.000000 -0.707106 0.707108
vn 0.000000 -0.707106 0.707108
vn 0.000000 -0.707106 0.707108
vn 0.707107 -0.707106 0.000000
vn 0.707107 -0.707106 0.000000
vn 0.707107 -0.707107 0.000000
vn 0.707107 -0.707107 0.000000
vn -0.707104 0.000000 0.707109
vn -0.707104 0.000000 0.707109
vn 0.707102 0.000000 -0.707112
vn 0.707102 0.000000 -0.707112
vn -0.691207 0.114038 -0.713603
vn -0.691218 0.113977 -0.713602
vn 0.000000 0.000000 1.000000
vn 0.000000 0.000000 1.000000
vn 0.000000 0.000000 1.000000
vn 0.000000 0.000000 1.000000
vn 1.000000 -0.000000 0.000000
vn 1.000000 0.000000 0.000000
vn 1.000000 -0.000000 0.000000
vn 1.000000 0.000000 0.000000
vn 0.000000 0.000000 -1.000000
vn 0.000000 0.000000 -1.000000
vn 0.000000 -0.054418 -0.998518
vn 0.000000 -0.054417 -0.998518
vn 0.000000 -0.382677 -0.923882
vn 0.000000 -0.382675 -0.923883
vn 0.000000 -0.923878 -0.382688
vn 0.000000 -0.923878 -0.382687
vn 0.000000 -0.998518 -0.054419
vn 0.000000 -0.998518 -0.054419
vn 0.707102 0.000000 0.707112
vn 0.707102 0.000000 0.707112
vn -0.691207 0.114038 0.713602
vn -0.691218 0.113977 0.713601
vn 0.691204 0.114038 -0.713605
vn 0.691216 0.113976 -0.713604
vn 0.000000 -0.998518 0.054417
vn 0.000000 -0.998518 0.054417
vn 0.000000 0.054416 -0.998518
vn 0.000000 0.054416 -0.998518
vn -0.654590 0.267385 -0.707119
vn -0.654589 0.267385 -0.707120
vn 0.000000 -0.923881 0.382679
vn 0.000000 -0.923882 0.382677
vn 0.000000 0.382689 -0.923877
vn 0.000000 0.382688 -0.923878
vn 0.000000 0.998518 -0.054416
vn 0.000000 0.998518 -0.054416
vn 0.000000 0.923882 -0.382678
vn 0.000000 0.923882 -0.382677
vn 0.000000 -0.382688 0.923878
vn 0.000000 -0.382687 0.923878
vn 0.000000 -0.054416 0.998518
vn 0.000000 -0.054416 0.998518
vn 0.000000 0.000000 1.000000
vn 0.000000 0.000000 1.000000
vn 0.000000 0.000000 -1.000000
vn 0.000000 0.000000 -1.000000
vn 0.000000 0.998518 0.054418
vn 0.000000 0.998518 0.054418
vn 0.000000 0.054418 0.998518
vn 0.000000 0.054417 0.998518
vn -0.959504 0.281695 0.000000
vn -0.954902 0.296922 0.000000
vn -0.925746 0.378146 0.000000
vn -0.925746 0.378146 0.000000
vn 0.654584 0.267382 -0.707126
vn 0.654584 0.267382 -0.707126
vn 0.000000 0.923878 0.382688
vn 0.000000 0.923878 0.382686
vn 0.000000 0.382678 0.923882
vn 0.000000 0.382677 0.923882
vn 0.691204 0.114038 0.713605
vn 0.691216 0.113976 0.713604
vn -0.654589 0.267385 0.707120
vn -0.654589 0.267385 0.707120
vn -0.557601 0.830109 0.000000
vn -0.557601 0.830109 0.000000
vn -0.557604 0.830107 0.000000
vn -0.557604 0.830107 0.000000
vn 0.954902 0.296922 0.000000
vn 0.959504 0.281695 0.000000
vn 0.925746 0.378145 0.000000
vn 0.925746 0.378145 0.000000
vn 0.000000 1.000000 0.000000
vn 0.000000 1.000000 0.000000
vn 0.000000 1.000000 0.000000
vn 0.000000 1.000000 0.000000
vn 0.000000 0.000000 1.000000
vn 0.000000 0.000000 1.000000
vn 0.557598 0.830111 0.000000
vn 0.557598 0.830111 0.000000
vn 0.557601 0.830109 0.000000
vn 0.557601 0.830109 0.000000
vn 0.654584 0.267382 0.707126
vn 0.654584 0.267382 0.707126
vn -1.000000 -0.000000 0.000000
vn -1.000000 0.000000 0.000000
vn -1.000000 0.000001 0.000000
vn -1.000000 0.000000 0.000000
vn -1.000000 0.000001 0.000000
vn -1.000000 0.000000 0.000000
vn -1.000000 0.000000 0.000000
vn -1.000000 -0.000001 0.000000
vn -1.000000 0.000001 0.000000
vn -1.000000 0.000000 0.000000
vn -1.000000 -0.000000 0.000000
vn -1.000000 -0.000001 0.000000
vn 1.000000 0.000000 0.000000
vn 1.000000 -0.000000 0.000000
vn 1.000000 0.000000 0.000000
vn 1.000000 -0.000002 0.000000
vn 1.000000 -0.000003 0.000000
vn 1.000000 -0.000000 0.000000
vn 1.000000 -0.000000 0.000000
vn 1.000000 0.000001 0.000000
vn 1.000000 0.000000 0.000000
vn 1.000000 0.000000 0.000000
vn 1.000000 0.000000 0.000000
vn 1.000000 0.000000 0.000000
vn 1.000000 0.000000 0.000000
vn 1.000000 0.000000 0.000000
vn 1.000000 0.000000 0.000000
vn 1.000000 -0.000000 0.000000
vn 1.000000 0.000002 0.000000
vn 1.000000 -0.000000 0.000000
vn 1.000000 -0.000001 0.000000
vn 1.000000 0.000001 0.000000
vn 1.000000 0.000004 0.000000
vn 1.000000 -0.000011 0.000000
vn 1.000000 -0.000003 0.000000
vn 1.000000 0.000000 0.000000
vn 0.000000 -0.054417 0.998518
vn 0.000000 -0.054417 0.998518
vn 0.000000 0.998518 -0.054416
vn 0.000000 0.998518 -0.054416
vn 0.000000 -0.382683 0.923880
vn 0.000000 -0.382683 0.923880
vn 0.000000 0.923880 -0.382681
vn 0.000000 0.923880 -0.382681
vn 0.000000 0.054417 -0.998518
vn 0.000000 0.382683 -0.923880
vn 0.000000 0.054417 -0.998518
vn 0.000000 0.382684 -0.923879
vn 0.000000 -0.923880 0.382681
vn 0.000000 -0.998518 0.054416
vn 0.000000 -0.923880 0.382681
vn 0.000000 -0.998518 0.054416
vn 0.000000 -0.054417 -0.998518
vn 0.000000 -0.054417 -0.998518
vn 0.000000 -0.998518 -0.054416
vn 0.000000 -0.998518 -0.054416
vn 0.000000 -0.923880 -0.382681
vn 0.000000 -0.923880 -0.382681
vn 0.000000 -0.382683 -0.923880
vn 0.000000 -0.382683 -0.923880
vn -1.000000 0.000000 0.000000
vn -1.000000 0.000000 0.000000
vn -1.000000 0.000000 0.000000
vn -1.000000 -0.000004 0.000000
vn -1.000000 -0.000001 0.000000
vn -1.000000 0.000002 0.000000
vn -1.000000 0.000003 0.000000
vn -1.000000 -0.000000 0.000000
vn -1.000000 -0.000008 0.000000
vn -1.000000 0.000022 0.000000
vn -1.000000 -0.000005 0.000000
vn -1.000000 0.000000 0.000000
s 1
g mlotek:pCube3
usemtl mlotek:lambert2SG
f 1/85/1 2/86/2 4/87/3
f 4/87/3 2/86/2 3/88/4
s 2
f 2/133/5 5/134/6 3/135/7
f 3/135/7 5/134/6 6/136/8
s 3
usemtl initialShadingGroup
f 7/93/9 8/94/10 9/95/11
s 4
f 10/104/12 11/98/13 12/102/14
s 5
f 13/99/15 14/96/16 15/97/17
s 6
f 16/101/18 17/100/19 18/103/20
s 7
f 11/14/21 10/5/22 8/9/23
f 8/9/23 10/5/22 9/2/24
s 8
f 8/94/25 7/93/26 14/96/27
f 14/96/27 7/93/26 15/97/28
s 3
f 19/1/29 20/4/30 9/2/11
f 9/2/11 20/4/30 7/8/9
s 10
f 8/94/31 14/96/32 11/98/33
f 11/98/33 14/96/32 17/100/34
s 11
f 19/1/35 9/2/36 21/3/37
f 21/3/37 9/2/36 10/5/38
s 12
f 20/141/39 22/142/40 7/143/41
f 7/143/41 22/142/40 15/145/42
s 13
f 12/102/43 11/98/44 16/101/45
f 16/101/45 11/98/44 17/100/46
s 14
f 18/32/47 17/39/48 13/35/49
f 13/35/49 17/39/48 14/44/50
s 4
f 23/15/51 21/3/52 12/10/14
f 12/10/14 21/3/52 10/5/12
s 5
f 22/45/53 24/33/54 15/40/17
f 15/40/17 24/33/54 13/35/15
s 3
f 20/4/30 19/1/29 26/7/55
f 26/7/55 19/1/29 25/13/56
s 17
f 23/149/57 12/150/58 27/151/59
f 27/151/59 12/150/58 16/152/60
s 18
f 28/31/61 18/32/62 24/33/63
f 24/33/63 18/32/62 13/35/64
s 12
f 22/142/40 20/141/39 29/144/65
f 29/144/65 20/141/39 26/146/66
s 19
usemtl mlotek:lambert2SG
f 30/157/67 31/158/68 33/159/69
f 33/159/69 31/158/68 32/161/70
s 20
f 33/105/71 32/106/72 35/107/73
f 35/107/73 32/106/72 34/108/74
s 6
usemtl initialShadingGroup
f 28/31/75 27/34/76 18/32/20
f 18/32/20 27/34/76 16/38/18
s 4
f 23/15/51 36/20/77 21/3/52
f 21/3/52 36/20/77 37/23/78
s 5
f 22/45/53 29/50/79 24/33/54
f 24/33/54 29/50/79 38/51/80
s 20
usemtl mlotek:lambert2SG
f 35/107/73 34/108/74 40/109/81
f 40/109/81 34/108/74 39/110/82
s 19
f 41/162/83 42/160/84 30/157/67
f 30/157/67 42/160/84 31/158/68
s 3
usemtl initialShadingGroup
f 25/13/56 43/19/85 26/7/55
f 26/7/55 43/19/85 44/24/86
s 20
usemtl mlotek:lambert2SG
f 40/109/81 39/110/82 46/111/87
f 46/111/87 39/110/82 45/112/88
s 19
f 47/164/89 48/163/90 41/162/83
f 41/162/83 48/163/90 42/160/84
s 23
f 49/113/91 50/114/92 47/115/93
f 47/115/93 50/114/92 48/117/94
s 24
f 46/165/95 45/166/96 52/167/97
f 52/167/97 45/166/96 51/168/98
s 17
usemtl initialShadingGroup
f 23/149/57 27/151/59 36/153/99
f 36/153/99 27/151/59 53/154/100
s 12
f 29/144/65 26/146/66 54/147/101
f 54/147/101 26/146/66 44/148/102
s 23
usemtl mlotek:lambert2SG
f 55/118/103 56/116/104 49/113/91
f 49/113/91 56/116/104 50/114/92
s 24
f 52/167/97 51/168/98 58/169/105
f 58/169/105 51/168/98 57/170/106
s 11
usemtl initialShadingGroup
f 25/13/107 37/23/108 43/19/109
f 43/19/109 37/23/108 59/27/110
s 5
f 38/51/80 29/50/79 60/58/111
f 60/58/111 29/50/79 54/59/112
s 23
usemtl mlotek:lambert2SG
f 61/120/113 62/119/114 55/118/103
f 55/118/103 62/119/114 56/116/104
s 24
f 58/169/105 57/170/106 61/171/115
f 61/171/115 57/170/106 62/172/116
s 6
usemtl initialShadingGroup
f 27/34/76 28/31/75 53/37/117
f 53/37/117 28/31/75 63/43/118
s 4
f 37/23/78 36/20/77 59/27/119
f 59/27/119 36/20/77 64/28/120
s 27
f 59/27/121 64/28/122 43/19/123
f 43/19/123 64/28/122 44/24/124
s 18
f 63/43/125 38/51/126 65/49/127
f 65/49/127 38/51/126 60/58/128
s 29
f 44/121/129 64/122/130 54/123/131
f 54/123/131 64/122/130 66/124/132
s 17
f 36/153/99 53/154/100 64/155/133
f 64/155/133 53/154/100 66/156/134
s 30
f 66/54/135 65/49/136 54/59/137
f 54/59/137 65/49/136 60/58/138
s 6
f 63/43/118 65/49/139 53/37/117
f 53/37/117 65/49/139 66/54/140
s 11
f 37/23/108 6/21/141 21/3/37
f 6/21/141 67/16/142 21/3/37
f 67/16/142 68/11/143 21/3/37
f 72/18/144 19/1/35 71/17/145
f 68/11/143 69/6/146 21/3/37
f 21/3/37 69/6/146 19/1/35
f 71/17/145 19/1/35 70/12/147
f 69/6/146 70/12/147 19/1/35
f 6/21/141 37/23/108 3/29/148
f 3/29/148 37/23/108 4/30/149
f 4/30/149 37/23/108 75/26/150
f 19/1/35 72/18/144 25/13/107
f 72/18/144 73/22/151 25/13/107
f 37/23/108 25/13/107 75/26/150
f 73/22/151 74/25/152 25/13/107
f 74/25/152 75/26/150 25/13/107
s 18
f 63/43/125 28/31/61 58/48/153
f 58/48/153 28/31/61 52/52/154
f 30/46/155 33/41/156 24/33/63
f 52/52/154 28/31/61 46/47/157
f 33/41/156 35/36/158 24/33/63
f 24/33/63 35/36/158 28/31/61
f 46/47/157 28/31/61 40/42/159
f 28/31/61 35/36/158 40/42/159
f 58/48/153 61/53/160 63/43/125
f 61/53/160 55/56/161 63/43/125
f 55/56/161 49/57/162 63/43/125
f 24/33/63 38/51/126 30/46/155
f 30/46/155 38/51/126 41/55/163
f 63/43/125 49/57/162 38/51/126
f 41/55/163 38/51/126 47/60/164
f 49/57/162 47/60/164 38/51/126
s 35
usemtl mlotek:lambert2SG
f 48/61/165 50/62/166 42/63/167
f 42/63/167 50/62/166 31/64/168
f 50/62/166 56/65/169 31/64/168
f 56/65/169 62/66/170 31/64/168
f 62/66/170 57/67/171 31/64/168
f 57/67/171 51/68/172 31/64/168
f 51/68/172 45/69/173 31/64/168
f 45/69/173 39/70/174 31/64/168
f 31/64/168 39/70/174 32/71/175
f 39/70/174 34/72/176 32/71/175
s 2
f 76/138/177 67/137/178 5/134/6
f 5/134/6 67/137/178 6/136/8
s 1
f 1/85/1 4/87/3 77/89/179
f 77/89/179 4/87/3 75/90/180
s 2
f 76/138/177 78/139/181 67/137/178
f 67/137/178 78/139/181 68/140/182
s 1
f 79/92/183 77/89/179 74/91/184
f 74/91/184 77/89/179 75/90/180
s 37
f 80/173/185 79/174/186 73/175/187
f 73/175/187 79/174/186 74/176/188
s 38
f 78/125/189 81/126/190 68/127/191
f 68/127/191 81/126/190 69/128/192
s 37
f 80/173/185 73/175/187 82/177/193
f 82/177/193 73/175/187 72/178/194
s 38
f 83/130/195 70/129/196 81/126/190
f 81/126/190 70/129/196 69/128/192
f 83/130/195 84/131/197 70/129/196
f 70/129/196 84/131/197 71/132/198
s 37
f 84/180/199 82/177/193 71/179/200
f 71/179/200 82/177/193 72/178/194
s 40
f 78/73/201 76/74/202 81/75/203
f 81/75/203 76/74/202 83/76/204
f 76/74/202 5/77/205 83/76/204
f 83/76/204 5/77/205 84/78/206
f 84/78/206 5/77/205 82/79/207
f 82/79/207 5/77/205 80/80/208
f 5/77/205 2/81/209 80/80/208
f 2/81/209 1/82/210 80/80/208
f 80/80/208 1/82/210 79/83/211
f 1/82/210 77/84/212 79/83/211
